# xmcd
#
# Track frame offsets:
#	150
#	23847
#	45525
#	65700
#	84592
#	103247
#	121517
#	149327
#	168717
#	183020
#	210492
#	228460
#	249142
#	260270
#
# Disc length: 3707 seconds
#
# Revision: 13
# Processed by: cddbd v1.5.1PL0 Copyright (c) Steve Scherf et al.
# Submitted via: EasyCDDAExtractor 7.0.4.1
#
DISCID=b70e790e
DTITLE=Grande Encontro - O Melhor dos Encontros
DYEAR=2001
DGENRE=MPB
TTITLE0=Admirável Gado Novo
TTITLE1=Chão de Giz
TTITLE2=Taxi Lunar
TTITLE3=Caravana
TTITLE4=Coração Bobo
TTITLE5=Pelas Ruas Que Andei
TTITLE6=Pot-Pourri - Asa Branca - A Volta da Asa Branca
TTITLE7=A Terceira Lâmina
TTITLE8=O Trem das Sete
TTITLE9=Eternas Ondas
TTITLE10=Banquete dos Signos
TTITLE11=Disparada
TTITLE12=Bicho de Sete Cabeças II
TTITLE13=Pot-Pourri - Banho de Cheiro - Frevo Mulher
EXTD=O Melhor dos Encontros , Paulo Durães YEAR: 2001
EXTT0=
EXTT1=
EXTT2=
EXTT3=
EXTT4=
EXTT5=
EXTT6=
EXTT7=
EXTT8=
EXTT9=
EXTT10=
EXTT11=
EXTT12=
EXTT13=
PLAYORDER=
